<?xml version="1.0" encoding="UTF-8" standalone="no"?>
<!DOCTYPE svg PUBLIC "-//W3C//DTD SVG 20010904//EN"
              "http://www.w3.org/TR/2001/REC-SVG-20010904/DTD/svg10.dtd">

<svg xmlns="http://www.w3.org/2000/svg"
     width="8.61003in" height="8.61003in"
     viewBox="0 0 620 620">
  <path id="Selection #1"
        fill="#3c751c" stroke="none" stroke-width="1"
        d="M 184.00,80.00
           C 184.20,70.73 186.29,55.49 189.87,47.00
             198.93,25.55 219.37,10.04 243.00,10.00
             243.00,10.00 379.00,10.00 379.00,10.00
             401.60,10.04 420.64,25.52 428.99,46.00
             433.85,57.94 434.36,67.57 436.00,80.00
             436.00,80.00 462.00,80.96 462.00,80.96
             475.70,81.00 493.28,77.95 498.21,95.00
             499.11,98.09 498.99,100.84 499.00,104.00
             510.27,105.48 532.00,105.29 532.00,105.29
             547.06,107.25 564.18,116.60 574.96,127.09
             587.67,139.45 595.56,157.53 597.94,175.00
             597.94,175.00 599.51,476.54 597.56,489.00
             594.31,509.80 582.25,528.72 565.00,540.79
             558.98,545.01 551.96,548.65 545.00,551.00
             535.02,554.37 523.49,555.00 513.00,555.00
             512.04,562.24 511.17,569.12 505.67,574.53
             499.94,580.18 494.60,580.99 487.00,581.00
             487.00,581.00 441.00,581.00 441.00,581.00
             425.14,580.80 421.11,568.60 420.00,555.00
             420.00,555.00 200.00,555.00 200.00,555.00
             199.91,559.25 199.75,560.86 198.57,565.00
             193.78,581.78 182.41,581.00 168.00,581.00
             168.00,581.00 125.54,582.71 118.04,577.20
             111.36,572.30 108.67,562.92 108.00,555.00
             108.00,555.00 96.00,554.09 96.00,554.09
             87.16,553.48 84.47,554.57 75.00,551.48
             46.52,542.19 21.05,512.70 21.00,482.00
             21.00,482.00 21.00,180.00 21.00,180.00
             21.05,146.82 46.99,117.02 78.00,107.72
             91.41,103.70 108.97,104.00 123.00,104.00
             123.02,97.61 123.29,91.11 128.21,86.33
             132.66,82.00 138.06,81.07 144.00,81.00
             144.00,81.00 169.00,81.00 169.00,81.00
             169.00,81.00 184.00,80.00 184.00,80.00 Z
           M 235.10,58.01
           C 229.45,61.74 229.01,67.94 229.00,74.00
             229.00,74.00 229.00,104.00 229.00,104.00
             229.00,104.00 392.00,104.00 392.00,104.00
             392.00,104.00 392.00,76.00 392.00,76.00
             391.94,71.53 391.46,64.65 388.57,61.11" />
</svg>
